<svg id="Graphic_Element" data-name="Graphic Element" xmlns="http://www.w3.org/2000/svg" viewBox="0 0 1200 875"><g id="Graphic_Element-2" data-name="Graphic Element"><path id="path5442" d="M506.39,786.45c-51.6-7.38-109.73-36.89-170.79-86.68-25.66-20.93-85.55-82-111-113.26-40.54-49.7-84.35-112.7-117.74-169.26C90.08,388.85,59.39,333.9,60,333.4c.21-.17,8.59-.87,18.61-1.54,156.26-10.56,303-82.44,451.63-221.22,10.28-9.6,18.51-16,19.4-15,5.45,5.9,46.42,111.21,64.89,166.8,42.93,129.15,61.14,228.64,58.63,320.34-1.19,43.48-5.2,69.34-15.6,100.64-9.73,29.3-20,46.83-38.56,66-24.55,25.27-48.56,36-84.75,37.86C525.24,787.71,512.7,787.35,506.39,786.45ZM425,688.73c8.23-14.38,29.65-38.45,44.75-50.31,22.89-18,56.26-32.14,91.65-38.91,8.86-1.69,29.74-4.08,46.41-5.3L638.15,592l-20-8.63c-40.4-17.4-68.11-24.12-99.33-24.1-32.7,0-54.31,7.75-71.86,25.66-19.77,20.18-28.15,45.15-29.71,88.54-.54,15.09-.57,27.44-.07,27.44s4.06-5.48,7.9-12.17ZM295.51,497.46C319,486.13,333.4,456.83,338,410.82l1.56-15.73-9.24,11.08C301.18,441.06,267.54,472,244,485.58c-5.78,3.33-9.11,6.32-8.15,7.3,3.47,3.54,25.62,8.72,37.8,8.84C283.43,501.81,288.51,500.82,295.51,497.46Zm215.85-105.6c8.46-3.23,18.58-11.48,24-19.6,5.16-7.66,15.22-31.93,13.81-33.36-.37-.38-6.64,1.43-13.94,4-29.47,10.5-58.52,15.42-102.17,17.3l-28.25,1.21L421,370.57c39.68,22.35,69.29,29.33,90.32,21.29ZM784.72,783.63c-39.3-9.74-74.74-40.57-103.64-90.17-8.91-15.31-10.47-21.17-7.58-28.69,1.12-2.91,3-.6,9.86,12.31,18.08,33.85,42.36,63.15,65.31,78.81,54.11,36.93,115.12,23.48,175.07-38.6,69.77-72.24,131.31-208.46,175.45-388.36,11.17-45.54,31-143,29.42-144.62-.54-.55-9.42.79-19.72,3-27.56,5.84-71.35,12.77-103.49,16.37-39.28,4.4-122.45,4.4-157.65,0-77.59-9.71-150.33-33.45-207.69-67.79-7-4.17-13.21-7.25-13.86-6.84s-2.58,19-4.28,41.25-3.7,46.38-4.42,53.54l-1.31,13-4-11.68c-3.68-10.85-3.83-13.27-2.2-34.41,4.71-61,6.59-75.64,9.9-76.93,1.31-.52,9.91,3.69,19.11,9.35,54.24,33.37,119.62,56.8,187.15,67.06,34.16,5.18,56.4,6.69,99,6.68a860.92,860.92,0,0,0,186.37-20.73c13.8-3.06,25.9-5.06,26.89-4.43,3.14,2,2.06,9.9-9.06,66C1085.67,458.7,1019.88,624.09,939.57,715c-49.5,56-105.52,80.86-154.85,68.64Zm-4-146.14c-32.31-4.82-59.88-32.6-76.82-77.42-3.57-9.42-6.48-17.58-6.48-18.13s5.06,2.82,11.26,7.47C743.4,575.52,782.84,587.49,826,585,849,583.7,884,576.48,908.74,568l19.07-6.58-8.14,8.54c-10.74,11.27-32.78,29.93-46.41,39.27-32.11,22-65.72,32.3-92.57,28.3Zm201-237.35c-23.76-16.53-55.39-30.7-90.22-40.4-10-2.79-19.46-5.53-21-6.07-3.38-1.24,11.71-6.81,32.81-12.13,20.14-5.07,48.73-5.49,59.13-.85,11.37,5.07,18.94,11.92,23.65,21.4,5.2,10.47,8.85,28,8,38.63l-.6,7.66-11.84-8.24Zm-319-32.89c0-5.89,7.5-26.82,12.5-34.85,18.71-30.1,54.63-29.82,106.88.83l16.4,9.62-29.74,2.23c-42.52,3.2-72.11,9.69-99.21,21.75C663.91,369.36,662.76,369.43,662.76,367.25Z"/></g></svg>